<svg xmlns="http://www.w3.org/2000/svg" xmlns:xlink="http://www.w3.org/1999/xlink" width="3240" zoomAndPan="magnify" viewBox="0 0 2430 809.999993" height="1080" preserveAspectRatio="xMidYMid meet" version="1.0"><defs><g/><clipPath id="fe7a6dafae"><path d="M 34.277344 67.707031 L 777 67.707031 L 777 741.957031 L 34.277344 741.957031 Z M 34.277344 67.707031 " clip-rule="nonzero"/></clipPath></defs><g clip-path="url(#fe7a6dafae)"><path fill="#34d399" d="M 66.296875 378.890625 C 83.980469 378.890625 98.3125 393.222656 98.3125 410.910156 C 98.3125 428.59375 83.980469 442.941406 66.296875 442.941406 C 48.621094 442.941406 34.277344 428.59375 34.277344 410.910156 C 34.277344 393.234375 48.621094 378.890625 66.296875 378.890625 M 86.671875 198.808594 C 101.785156 198.808594 114.039062 211.050781 114.039062 226.175781 C 114.039062 241.289062 101.785156 253.542969 86.671875 253.542969 C 71.558594 253.542969 59.304688 241.289062 59.304688 226.175781 C 59.304688 211.050781 71.558594 198.808594 86.671875 198.808594 Z M 204.15625 281.78125 C 227.960938 281.78125 247.273438 301.089844 247.273438 324.898438 C 247.273438 348.703125 227.960938 368 204.15625 368 C 180.351562 368 161.039062 348.691406 161.039062 324.898438 C 161.050781 301.078125 180.351562 281.78125 204.15625 281.78125 Z M 253.964844 115.890625 C 275.988281 115.890625 293.859375 133.746094 293.859375 155.785156 C 293.859375 177.8125 275.988281 195.679688 253.964844 195.679688 C 231.9375 195.679688 214.082031 177.8125 214.082031 155.785156 C 214.082031 133.746094 231.9375 115.890625 253.964844 115.890625 Z M 490.0625 143.972656 L 568.746094 259.390625 L 571.902344 259.328125 C 611.511719 259.328125 643.621094 291.449219 643.621094 331.042969 C 643.621094 370.636719 611.511719 402.773438 571.902344 402.773438 C 553.269531 402.773438 535.6875 395.5625 522.523438 383.0625 L 479.472656 398.667969 C 474.964844 413.9375 464.464844 426.605469 450.753906 434.011719 C 462.0625 437.769531 471.960938 444.980469 478.980469 454.648438 L 532.921875 454.414062 C 543.289062 440.875 559.546875 432.558594 577.179688 432.558594 C 607.9375 432.558594 632.902344 457.507812 632.902344 488.277344 C 632.902344 519.050781 607.953125 544 577.179688 544 C 559.636719 544 543.460938 535.773438 533.078125 522.351562 L 478.484375 522.585938 C 469.855469 534.085938 457.136719 541.984375 442.867188 544.558594 L 422.480469 588.234375 C 424.777344 594.238281 425.960938 600.628906 425.960938 607.140625 C 425.960938 623.957031 418.113281 638.953125 405.871094 648.644531 C 441.164062 658.652344 472.859375 679.3125 496.367188 708.214844 L 612.628906 708.214844 L 654.730469 625.097656 C 712.742188 610.546875 753.660156 612.664062 732.609375 542.117188 C 751.320312 524.222656 762.875 517.699219 741.796875 502.066406 C 750.566406 497.542969 753.347656 493.152344 754.609375 487.121094 L 739.367188 458.273438 C 769.851562 440.808594 783.808594 423.371094 773.046875 410.933594 L 703.539062 331.132812 C 691.742188 185.660156 596.488281 119.710938 494.351562 114.125 C 494.457031 115.75 494.519531 117.371094 494.519531 119.023438 C 494.519531 127.585938 493 136.019531 490.0625 143.972656 Z M 473.78125 113.8125 C 471.167969 87.964844 449.339844 67.785156 422.804688 67.785156 C 394.5 67.785156 371.554688 90.734375 371.554688 119.023438 C 371.554688 124.558594 372.4375 129.898438 374.0625 134.890625 C 380.738281 155.421875 400.035156 170.273438 422.804688 170.273438 C 431.378906 170.273438 439.449219 168.167969 446.546875 164.453125 L 535.53125 294.957031 C 526.34375 304.222656 520.667969 316.96875 520.667969 331.03125 L 520.71875 333.199219 L 453.066406 357.734375 C 445.960938 348.753906 434.964844 342.984375 422.621094 342.984375 C 401.195312 342.984375 383.792969 360.371094 383.792969 381.8125 C 383.792969 403.253906 401.195312 420.628906 422.621094 420.628906 C 443.515625 420.628906 460.554688 404.113281 461.410156 383.4375 L 528.929688 358.941406 C 538.078125 372.992188 553.90625 382.28125 571.90625 382.28125 C 600.207031 382.28125 623.15625 359.320312 623.15625 331.03125 C 623.15625 302.726562 600.21875 279.78125 571.90625 279.78125 C 567.445312 279.78125 563.121094 280.351562 559 281.417969 L 466.519531 145.777344 C 471.300781 137.980469 474.042969 128.820312 474.042969 119.023438 C 474.042969 117.269531 473.949219 115.527344 473.78125 113.8125 Z M 354.816406 580.320312 C 346.253906 586.15625 340.625 595.992188 340.625 607.128906 C 340.625 623.941406 353.425781 637.78125 369.796875 639.417969 C 370.878906 639.523438 371.957031 639.574219 373.058594 639.574219 C 390.980469 639.574219 405.507812 625.046875 405.507812 607.128906 C 405.507812 600.253906 403.363281 593.875 399.710938 588.625 L 429.496094 524.832031 L 432.746094 524.976562 C 448.105469 524.976562 461.269531 515.542969 466.738281 502.144531 L 544.65625 501.804688 C 549.957031 514.554688 562.535156 523.507812 577.191406 523.507812 C 596.660156 523.507812 612.433594 507.730469 612.433594 488.265625 C 612.433594 468.8125 596.660156 453.023438 577.191406 453.023438 C 562.484375 453.023438 549.890625 462.03125 544.601562 474.828125 L 467.050781 475.167969 C 461.773438 461.367188 448.402344 451.570312 432.757812 451.570312 C 420.648438 451.570312 409.898438 457.441406 403.207031 466.5 L 339 431.335938 C 339.664062 428.296875 340.015625 425.125 340.015625 421.890625 C 340.015625 408.089844 333.777344 395.757812 323.964844 387.558594 L 350.828125 321.15625 C 353.621094 321.503906 356.464844 321.699219 359.339844 321.699219 C 396.007812 321.699219 425.714844 291.980469 425.714844 255.3125 C 425.714844 218.652344 395.996094 188.933594 359.339844 188.933594 C 322.679688 188.933594 292.960938 218.652344 292.960938 255.3125 C 292.960938 279.519531 305.917969 300.6875 325.265625 312.292969 L 298.976562 377.304688 L 295.273438 377.148438 C 270.570312 377.148438 250.535156 397.171875 250.535156 421.890625 C 250.535156 446.59375 270.570312 466.617188 295.273438 466.617188 C 306.984375 466.617188 317.636719 462.121094 325.605469 454.765625 L 396.425781 493.554688 C 397.476562 500.871094 400.6875 507.472656 405.378906 512.734375 L 376.375 574.875 L 373.074219 574.707031 C 366.304688 574.691406 360.011719 576.773438 354.816406 580.320312 Z M 422.609375 322.519531 C 435.5 322.519531 447.832031 326.691406 457.941406 334.1875 L 501.292969 318.464844 C 502.8125 309.914062 505.867188 301.742188 510.296875 294.308594 L 438.515625 189.023438 C 433.382812 190.167969 428.117188 190.765625 422.804688 190.765625 L 417.191406 190.546875 C 434.980469 206.449219 446.179688 229.570312 446.179688 255.3125 C 446.179688 282.792969 433.40625 307.300781 413.472656 323.234375 C 416.449219 322.753906 419.503906 322.519531 422.609375 322.519531 Z M 354.152344 667.734375 C 374.738281 667.734375 391.421875 684.421875 391.421875 705.003906 C 391.421875 725.585938 374.738281 742.273438 354.152344 742.273438 C 333.582031 742.273438 316.882812 725.585938 316.882812 705.003906 C 316.882812 684.421875 333.570312 667.734375 354.152344 667.734375 Z M 238.226562 611.261719 C 258.8125 611.261719 275.496094 627.945312 275.496094 648.527344 C 275.496094 669.113281 258.8125 685.796875 238.226562 685.796875 C 217.644531 685.796875 200.960938 669.113281 200.960938 648.527344 C 200.960938 627.945312 217.644531 611.261719 238.226562 611.261719 Z M 180.648438 481.964844 C 198.007812 481.964844 212.082031 496.035156 212.082031 513.398438 C 212.082031 530.757812 198.007812 544.832031 180.648438 544.832031 C 163.273438 544.832031 149.214844 530.746094 149.214844 513.398438 C 149.214844 496.023438 163.289062 481.964844 180.648438 481.964844 Z M 180.648438 481.964844 " fill-opacity="1" fill-rule="evenodd"/></g><g fill="#ffffff" fill-opacity="1"><g transform="translate(783.816427, 576.201236)"><g><path d="M 21.359375 -20.90625 L 29.546875 -89.078125 C 41.960938 -80.296875 54.304688 -74.007812 66.578125 -70.21875 C 78.859375 -66.4375 90 -64.238281 100 -63.625 C 110 -63.019531 117.421875 -62.867188 122.265625 -63.171875 C 131.960938 -63.785156 140.21875 -67.195312 147.03125 -73.40625 C 153.851562 -79.613281 156.8125 -87.113281 155.90625 -95.90625 C 155.289062 -105.300781 151.800781 -112.421875 145.4375 -117.265625 C 139.082031 -122.109375 131.359375 -126.046875 122.265625 -129.078125 C 105.296875 -135.441406 89.460938 -142.789062 74.765625 -151.125 C 60.066406 -159.457031 48.25 -169.832031 39.3125 -182.25 C 30.375 -194.675781 25.90625 -209.984375 25.90625 -228.171875 C 25.90625 -246.347656 29.769531 -262.785156 37.5 -277.484375 C 45.226562 -292.179688 56.0625 -303.921875 70 -312.703125 C 83.9375 -321.492188 99.84375 -326.34375 117.71875 -327.25 C 126.207031 -327.851562 136.585938 -327.550781 148.859375 -326.34375 C 161.128906 -325.132812 177.71875 -320.890625 198.625 -313.609375 L 190.4375 -250.890625 C 172.5625 -258.160156 158.320312 -262.328125 147.71875 -263.390625 C 137.113281 -264.453125 129.234375 -264.832031 124.078125 -264.53125 C 112.566406 -263.925781 104.160156 -259.984375 98.859375 -252.703125 C 93.554688 -245.429688 91.207031 -237.253906 91.8125 -228.171875 C 92.71875 -219.078125 96.65625 -212.179688 103.625 -207.484375 C 110.59375 -202.785156 118.773438 -198.769531 128.171875 -195.4375 C 145.140625 -189.375 160.742188 -181.875 174.984375 -172.9375 C 189.222656 -164 200.660156 -153.242188 209.296875 -140.671875 C 217.941406 -128.097656 222.265625 -113.175781 222.265625 -95.90625 C 222.265625 -78.03125 218.320312 -61.816406 210.4375 -47.265625 C 202.5625 -32.722656 191.273438 -21.054688 176.578125 -12.265625 C 161.878906 -3.484375 144.378906 1.515625 124.078125 2.734375 C 118.023438 3.035156 109.769531 2.804688 99.3125 2.046875 C 88.851562 1.285156 76.957031 -0.832031 63.625 -4.3125 C 50.300781 -7.800781 36.210938 -13.332031 21.359375 -20.90625 Z M 21.359375 -20.90625 "/></g></g></g><g fill="#ffffff" fill-opacity="1"><g transform="translate(999.200692, 576.201236)"><g><path d="M 36.359375 0 L 36.359375 -324.984375 L 101.359375 -324.984375 L 101.359375 -195.4375 L 183.171875 -324.984375 L 259.078125 -324.984375 L 153.625 -164.53125 L 268.171875 0 L 187.71875 0 L 101.359375 -127.265625 L 101.359375 0 Z M 36.359375 0 "/></g></g></g><g fill="#ffffff" fill-opacity="1"><g transform="translate(1248.665783, 576.201236)"><g><path d="M 101.359375 0 L 36.359375 0 L 36.359375 -324.984375 L 101.359375 -324.984375 Z M 101.359375 0 "/></g></g></g><g fill="#ffffff" fill-opacity="1"><g transform="translate(1361.807592, 576.201236)"><g><path d="M 36.359375 -324.984375 L 101.359375 -324.984375 L 101.359375 -65 L 204.53125 -65 L 204.53125 0 L 36.359375 0 Z M 36.359375 -324.984375 "/></g></g></g><g fill="#ffffff" fill-opacity="1"><g transform="translate(1560.833052, 576.201236)"><g><path d="M 36.359375 -324.984375 L 101.359375 -324.984375 L 101.359375 -65 L 204.53125 -65 L 204.53125 0 L 36.359375 0 Z M 36.359375 -324.984375 "/></g></g></g><g fill="#ffffff" fill-opacity="1"><g transform="translate(1759.858513, 576.201236)"><g><path d="M 101.359375 0 L 36.359375 0 L 36.359375 -324.984375 L 101.359375 -324.984375 Z M 101.359375 0 "/></g></g></g><g fill="#ffffff" fill-opacity="1"><g transform="translate(1873.000284, 576.201236)"><g><path d="M 198.625 -259.984375 L 101.359375 -259.984375 L 101.359375 -194.984375 L 184.078125 -194.984375 L 184.078125 -129.984375 L 101.359375 -129.984375 L 101.359375 0 L 36.359375 0 L 36.359375 -324.984375 L 198.625 -324.984375 Z M 198.625 -259.984375 "/></g></g></g><g fill="#ffffff" fill-opacity="1"><g transform="translate(2063.846352, 576.201236)"><g><path d="M 115.90625 0 L 115.90625 -146.359375 L 2.734375 -324.984375 L 81.8125 -324.984375 L 148.171875 -213.171875 L 214.53125 -324.984375 L 294.078125 -324.984375 L 180.4375 -146.359375 L 180.4375 0 Z M 115.90625 0 "/></g></g></g></svg>