<svg xmlns="http://www.w3.org/2000/svg" xmlns:xlink="http://www.w3.org/1999/xlink" width="1920" zoomAndPan="magnify" viewBox="0 0 1440 809.999993" height="1080" preserveAspectRatio="xMidYMid meet" version="1.0"><defs><g/><clipPath id="785be36d16"><path d="M 17.128906 209.09375 L 449 209.09375 L 449 600.59375 L 17.128906 600.59375 Z M 17.128906 209.09375 " clip-rule="nonzero"/></clipPath></defs><g clip-path="url(#785be36d16)"><path fill="#ffffff" d="M 35.726562 389.832031 C 46 389.832031 54.324219 398.160156 54.324219 408.429688 C 54.324219 418.703125 46 427.035156 35.726562 427.035156 C 25.460938 427.035156 17.128906 418.703125 17.128906 408.429688 C 17.128906 398.167969 25.460938 389.832031 35.726562 389.832031 M 47.5625 285.242188 C 56.339844 285.242188 63.457031 292.351562 63.457031 301.136719 C 63.457031 309.914062 56.339844 317.03125 47.5625 317.03125 C 38.785156 317.03125 31.667969 309.914062 31.667969 301.136719 C 31.667969 292.351562 38.785156 285.242188 47.5625 285.242188 Z M 115.796875 333.429688 C 129.625 333.429688 140.839844 344.648438 140.839844 358.472656 C 140.839844 372.300781 129.625 383.507812 115.796875 383.507812 C 101.972656 383.507812 90.753906 372.292969 90.753906 358.472656 C 90.761719 344.640625 101.972656 333.429688 115.796875 333.429688 Z M 144.726562 237.078125 C 157.519531 237.078125 167.898438 247.449219 167.898438 260.25 C 167.898438 273.042969 157.519531 283.421875 144.726562 283.421875 C 131.933594 283.421875 121.5625 273.042969 121.5625 260.25 C 121.5625 247.449219 131.933594 237.078125 144.726562 237.078125 Z M 281.859375 253.390625 L 327.558594 320.425781 L 329.390625 320.390625 C 352.398438 320.390625 371.046875 339.046875 371.046875 362.042969 C 371.046875 385.042969 352.398438 403.707031 329.390625 403.707031 C 318.570312 403.707031 308.359375 399.515625 300.710938 392.257812 L 275.707031 401.320312 C 273.089844 410.191406 266.988281 417.546875 259.027344 421.851562 C 265.59375 424.03125 271.34375 428.21875 275.421875 433.835938 L 306.75 433.699219 C 312.773438 425.835938 322.214844 421.003906 332.457031 421.003906 C 350.320312 421.003906 364.820312 435.496094 364.820312 453.367188 C 364.820312 471.242188 350.328125 485.734375 332.457031 485.734375 C 322.265625 485.734375 312.871094 480.953125 306.839844 473.160156 L 275.132812 473.292969 C 270.121094 479.972656 262.734375 484.5625 254.445312 486.058594 L 242.605469 511.425781 C 243.941406 514.910156 244.625 518.625 244.625 522.40625 C 244.625 532.171875 240.066406 540.882812 232.957031 546.511719 C 253.457031 552.324219 271.867188 564.324219 285.519531 581.109375 L 353.046875 581.109375 L 377.5 532.835938 C 411.191406 524.382812 434.960938 525.613281 422.730469 484.636719 C 433.601562 474.246094 440.308594 470.457031 428.070312 461.375 C 433.164062 458.75 434.777344 456.199219 435.511719 452.695312 L 426.65625 435.941406 C 444.363281 425.796875 452.46875 415.667969 446.21875 408.445312 L 405.847656 362.097656 C 398.996094 277.601562 343.671875 239.300781 284.347656 236.054688 C 284.410156 236.996094 284.445312 237.941406 284.445312 238.898438 C 284.445312 243.871094 283.5625 248.769531 281.859375 253.390625 Z M 272.402344 235.871094 C 270.882812 220.859375 258.203125 209.140625 242.792969 209.140625 C 226.355469 209.140625 213.023438 222.46875 213.023438 238.898438 C 213.023438 242.113281 213.539062 245.214844 214.480469 248.113281 C 218.359375 260.039062 229.570312 268.667969 242.792969 268.667969 C 247.773438 268.667969 252.460938 267.445312 256.582031 265.285156 L 308.265625 341.085938 C 302.929688 346.464844 299.632812 353.871094 299.632812 362.035156 L 299.664062 363.296875 L 260.371094 377.546875 C 256.242188 372.332031 249.855469 368.980469 242.6875 368.980469 C 230.242188 368.980469 220.132812 379.078125 220.132812 391.53125 C 220.132812 403.984375 230.242188 414.078125 242.6875 414.078125 C 254.824219 414.078125 264.71875 404.484375 265.214844 392.476562 L 304.433594 378.25 C 309.746094 386.40625 318.9375 391.804688 329.390625 391.804688 C 345.832031 391.804688 359.160156 378.46875 359.160156 362.035156 C 359.160156 345.597656 345.839844 332.269531 329.390625 332.269531 C 326.804688 332.269531 324.289062 332.601562 321.898438 333.21875 L 268.183594 254.4375 C 270.960938 249.910156 272.550781 244.589844 272.550781 238.898438 C 272.550781 237.878906 272.5 236.867188 272.402344 235.871094 Z M 203.304688 506.828125 C 198.328125 510.214844 195.0625 515.929688 195.0625 522.398438 C 195.0625 532.164062 202.496094 540.203125 212.007812 541.152344 C 212.632812 541.214844 213.257812 541.246094 213.902344 541.246094 C 224.308594 541.246094 232.746094 532.804688 232.746094 522.398438 C 232.746094 518.40625 231.5 514.699219 229.378906 511.652344 L 246.679688 474.601562 L 248.566406 474.683594 C 257.488281 474.683594 265.132812 469.203125 268.308594 461.421875 L 313.566406 461.226562 C 316.644531 468.628906 323.949219 473.828125 332.464844 473.828125 C 343.769531 473.828125 352.933594 464.667969 352.933594 453.359375 C 352.933594 442.0625 343.769531 432.890625 332.464844 432.890625 C 323.921875 432.890625 316.605469 438.121094 313.535156 445.558594 L 268.492188 445.753906 C 265.425781 437.738281 257.660156 432.046875 248.574219 432.046875 C 241.539062 432.046875 235.296875 435.457031 231.410156 440.71875 L 194.117188 420.296875 C 194.503906 418.53125 194.707031 416.6875 194.707031 414.808594 C 194.707031 406.792969 191.085938 399.628906 185.386719 394.867188 L 200.988281 356.300781 C 202.609375 356.503906 204.261719 356.617188 205.929688 356.617188 C 227.230469 356.617188 244.484375 339.355469 244.484375 318.058594 C 244.484375 296.765625 227.222656 279.503906 205.929688 279.503906 C 184.640625 279.503906 167.378906 296.765625 167.378906 318.058594 C 167.378906 332.117188 174.902344 344.414062 186.140625 351.152344 L 170.871094 388.914062 L 168.722656 388.824219 C 154.375 388.824219 142.734375 400.453125 142.734375 414.808594 C 142.734375 429.15625 154.375 440.785156 168.722656 440.785156 C 175.523438 440.785156 181.710938 438.175781 186.335938 433.902344 L 227.472656 456.433594 C 228.082031 460.683594 229.945312 464.515625 232.671875 467.574219 L 215.824219 503.664062 L 213.90625 503.566406 C 209.976562 503.558594 206.324219 504.765625 203.304688 506.828125 Z M 242.679688 357.09375 C 250.167969 357.09375 257.328125 359.515625 263.199219 363.871094 L 288.378906 354.738281 C 289.261719 349.773438 291.035156 345.023438 293.609375 340.707031 L 251.917969 279.558594 C 248.9375 280.222656 245.878906 280.570312 242.792969 280.570312 L 239.53125 280.441406 C 249.863281 289.679688 256.371094 303.105469 256.371094 318.058594 C 256.371094 334.019531 248.949219 348.253906 237.375 357.507812 C 239.101562 357.230469 240.875 357.09375 242.679688 357.09375 Z M 202.917969 557.601562 C 214.875 557.601562 224.566406 567.289062 224.566406 579.246094 C 224.566406 591.203125 214.875 600.890625 202.917969 600.890625 C 190.972656 600.890625 181.273438 591.203125 181.273438 579.246094 C 181.273438 567.289062 190.964844 557.601562 202.917969 557.601562 Z M 135.585938 524.796875 C 147.542969 524.796875 157.234375 534.488281 157.234375 546.445312 C 157.234375 558.398438 147.542969 568.089844 135.585938 568.089844 C 123.632812 568.089844 113.941406 558.398438 113.941406 546.445312 C 113.941406 534.488281 123.632812 524.796875 135.585938 524.796875 Z M 102.144531 449.699219 C 112.226562 449.699219 120.402344 457.875 120.402344 467.957031 C 120.402344 478.042969 112.226562 486.214844 102.144531 486.214844 C 92.054688 486.214844 83.886719 478.035156 83.886719 467.957031 C 83.886719 457.867188 92.0625 449.699219 102.144531 449.699219 Z M 102.144531 449.699219 " fill-opacity="1" fill-rule="evenodd"/></g><g fill="#ffffff" fill-opacity="1"><g transform="translate(452.475247, 504.436644)"><g><path d="M 12.40625 -12.140625 L 17.15625 -51.75 C 24.375 -46.644531 31.546875 -42.988281 38.671875 -40.78125 C 45.804688 -38.582031 52.273438 -37.304688 58.078125 -36.953125 C 63.890625 -36.609375 68.203125 -36.523438 71.015625 -36.703125 C 76.648438 -37.046875 81.445312 -39.019531 85.40625 -42.625 C 89.363281 -46.238281 91.078125 -50.597656 90.546875 -55.703125 C 90.203125 -61.160156 88.179688 -65.296875 84.484375 -68.109375 C 80.785156 -70.929688 76.296875 -73.21875 71.015625 -74.96875 C 61.160156 -78.664062 51.960938 -82.9375 43.421875 -87.78125 C 34.890625 -92.625 28.023438 -98.648438 22.828125 -105.859375 C 17.640625 -113.078125 15.046875 -121.96875 15.046875 -132.53125 C 15.046875 -143.09375 17.289062 -152.640625 21.78125 -161.171875 C 26.269531 -169.703125 32.5625 -176.519531 40.65625 -181.625 C 48.75 -186.726562 57.988281 -189.546875 68.375 -190.078125 C 73.300781 -190.429688 79.328125 -190.253906 86.453125 -189.546875 C 93.585938 -188.847656 103.226562 -186.382812 115.375 -182.15625 L 110.609375 -145.734375 C 100.234375 -149.953125 91.960938 -152.367188 85.796875 -152.984375 C 79.640625 -153.597656 75.066406 -153.816406 72.078125 -153.640625 C 65.390625 -153.296875 60.503906 -151.007812 57.421875 -146.78125 C 54.335938 -142.5625 52.972656 -137.8125 53.328125 -132.53125 C 53.859375 -127.25 56.144531 -123.242188 60.1875 -120.515625 C 64.238281 -117.785156 68.992188 -115.453125 74.453125 -113.515625 C 84.304688 -109.992188 93.367188 -105.632812 101.640625 -100.4375 C 109.910156 -95.25 116.550781 -89.003906 121.5625 -81.703125 C 126.582031 -74.398438 129.09375 -65.734375 129.09375 -55.703125 C 129.09375 -45.316406 126.804688 -35.898438 122.234375 -27.453125 C 117.660156 -19.003906 111.101562 -12.226562 102.5625 -7.125 C 94.03125 -2.019531 83.867188 0.878906 72.078125 1.578125 C 68.554688 1.753906 63.757812 1.625 57.6875 1.1875 C 51.613281 0.75 44.703125 -0.476562 36.953125 -2.5 C 29.210938 -4.53125 21.03125 -7.742188 12.40625 -12.140625 Z M 12.40625 -12.140625 "/></g></g></g><g fill="#ffffff" fill-opacity="1"><g transform="translate(577.574161, 504.436644)"><g><path d="M 21.125 0 L 21.125 -188.765625 L 58.875 -188.765625 L 58.875 -113.515625 L 106.390625 -188.765625 L 150.484375 -188.765625 L 89.234375 -95.5625 L 155.765625 0 L 109.03125 0 L 58.875 -73.921875 L 58.875 0 Z M 21.125 0 "/></g></g></g><g fill="#ffffff" fill-opacity="1"><g transform="translate(722.467807, 504.436644)"><g><path d="M 58.875 0 L 21.125 0 L 21.125 -188.765625 L 58.875 -188.765625 Z M 58.875 0 "/></g></g></g><g fill="#ffffff" fill-opacity="1"><g transform="translate(788.182531, 504.436644)"><g><path d="M 21.125 -188.765625 L 58.875 -188.765625 L 58.875 -37.75 L 118.796875 -37.75 L 118.796875 0 L 21.125 0 Z M 21.125 -188.765625 "/></g></g></g><g fill="#ffffff" fill-opacity="1"><g transform="translate(903.779966, 504.436644)"><g><path d="M 21.125 -188.765625 L 58.875 -188.765625 L 58.875 -37.75 L 118.796875 -37.75 L 118.796875 0 L 21.125 0 Z M 21.125 -188.765625 "/></g></g></g><g fill="#ffffff" fill-opacity="1"><g transform="translate(1019.377402, 504.436644)"><g><path d="M 58.875 0 L 21.125 0 L 21.125 -188.765625 L 58.875 -188.765625 Z M 58.875 0 "/></g></g></g><g fill="#ffffff" fill-opacity="1"><g transform="translate(1085.092103, 504.436644)"><g><path d="M 115.375 -151.015625 L 58.875 -151.015625 L 58.875 -113.25 L 106.921875 -113.25 L 106.921875 -75.5 L 58.875 -75.5 L 58.875 0 L 21.125 0 L 21.125 -188.765625 L 115.375 -188.765625 Z M 115.375 -151.015625 "/></g></g></g><g fill="#ffffff" fill-opacity="1"><g transform="translate(1195.938806, 504.436644)"><g><path d="M 67.3125 0 L 67.3125 -85.015625 L 1.578125 -188.765625 L 47.515625 -188.765625 L 86.0625 -123.8125 L 124.609375 -188.765625 L 170.8125 -188.765625 L 104.8125 -85.015625 L 104.8125 0 Z M 67.3125 0 "/></g></g></g></svg>